<svg width="40" height="40" viewBox="0 0 40 40" fill="none" xmlns="http://www.w3.org/2000/svg">
<mask id="mask0_118_19" style="mask-type:alpha" maskUnits="userSpaceOnUse" x="0" y="0" width="40" height="40">
<rect width="40" height="40" fill="#D9D9D9"/>
</mask>
<g mask="url(#mask0_118_19)">
<path d="M6.111 33.3333C5.361 33.3333 4.71054 33.0579 4.15963 32.5069C3.60871 31.956 3.33325 31.3056 3.33325 30.5556V9.44441C3.33325 8.69441 3.60871 8.04395 4.15963 7.49303C4.71054 6.94212 5.361 6.66666 6.111 6.66666H33.8888C34.6388 6.66666 35.2893 6.94212 35.8402 7.49303C36.3911 8.04395 36.6666 8.69441 36.6666 9.44441V30.5556C36.6666 31.3056 36.3911 31.956 35.8402 32.5069C35.2893 33.0579 34.6388 33.3333 33.8888 33.3333H6.111ZM19.9999 21.0555L6.111 12.0833V30.5556H33.8888V12.0833L19.9999 21.0555ZM19.9999 18.2778L33.7777 9.44441H6.24992L19.9999 18.2778ZM6.111 12.0833V9.44441V30.5556V12.0833Z" fill="#474C4F"/>
</g>
</svg>
